<svg xmlns="http://www.w3.org/2000/svg" width="60" height="57" viewBox="0 0 60 57" fill="none">
  <g clip-path="url(#clip0_192_2901)">
    <path d="M34.1466 11.8151L56.3582 31.8333L31.333 56.8585L4.27839 21.2465L34.1466 11.8151Z" fill="#F59429"/>
    <path d="M24.9907 31.833C24.9907 30.3873 25.2755 28.9558 25.8287 27.6202C26.382 26.2846 27.193 25.071 28.2153 24.0488C29.2376 23.0266 30.4512 22.2158 31.7869 21.6626C33.1225 21.1095 34.554 20.8249 35.9997 20.825C38.0574 20.8246 40.0741 21.4008 41.821 22.4884C43.5678 23.576 44.975 25.1313 45.8828 26.978H58.8828V35.978H46.2057C45.3806 38.0064 43.9693 39.7428 42.1525 40.9652C40.3356 42.1877 38.1956 42.8408 36.0057 42.841C34.5596 42.8419 33.1274 42.5579 31.791 42.0051C30.4547 41.4523 29.2403 40.6416 28.2173 39.6193C27.1944 38.597 26.383 37.3832 25.8293 36.0472C25.2757 34.7112 24.9907 33.2792 24.9907 31.833Z" fill="#16181D"/>
    <path d="M29.2599 32.223C29.2599 35.9454 32.2775 38.963 35.9999 38.963C39.7223 38.963 42.7399 35.9454 42.7399 32.223C42.7399 28.5006 39.7223 25.483 35.9999 25.483C32.2775 25.483 29.2599 28.5006 29.2599 32.223Z" stroke="#E1602D" stroke-width="3"/>
    <path d="M57.7759 6.808V32.222H41.5759" stroke="#E1602D" stroke-width="3"/>
  </g>
  <defs>
    <clipPath id="clip0_192_2901">
      <rect width="59.276" height="56.358" fill="white" transform="translate(0 0.5)"/>
    </clipPath>
  </defs>
</svg>