<svg xmlns="http://www.w3.org/2000/svg" width="46" height="46" viewBox="0 0 46 46" fill="none">
  <path fill-rule="evenodd" clip-rule="evenodd" d="M16.3899 39.05C12.0799 37.34 8.74988 33.94 7.09988 29.61C2.78988 18.34 9.76988 7.24 20.4099 5.39C20.5399 5.37 20.6799 5.36 20.8099 5.36C21.7199 5.36 22.5499 5.93 22.9999 6.97V22.8C22.9999 22.92 23.0499 23.04 23.1399 23.12L34.3599 34.34C34.7799 35.58 34.4799 36.63 33.6099 37.24L33.4099 37.38C28.5599 40.69 22.3499 41.42 16.3999 39.06L16.3899 39.05Z" fill="#F59429"/>
  <path fill-rule="evenodd" clip-rule="evenodd" d="M25.4599 22.32C24.6199 22.32 23.9299 21.64 23.9299 20.79V7.61C23.9299 7.22 24.0899 6.61 24.3199 6.29C24.7799 5.68 25.4199 5.35 26.1099 5.35C26.2399 5.35 26.3799 5.36 26.5099 5.39C33.8199 6.66 39.5899 12.44 40.8599 19.76C40.9399 20.24 40.8799 20.75 40.6299 21.17C40.1899 21.92 39.4999 22.32 38.6899 22.32H25.4699H25.4599Z" fill="#F59429"/>
  <path fill-rule="evenodd" clip-rule="evenodd" d="M36.1 33.86C35.51 33.86 34.98 33.64 34.55 33.21L28.39 27.05C27.97 26.63 27.63 25.8 27.71 25.21C27.88 24.03 28.8 23.25 29.91 23.25H38.66C39.15 23.25 39.65 23.39 40.03 23.7C40.71 24.27 40.99 25.02 40.85 25.83C40.41 28.39 39.42 30.77 37.93 32.9C37.65 33.3 37.01 33.74 36.52 33.82C36.37 33.84 36.23 33.86 36.09 33.86H36.1Z" fill="#E1602D"/>
</svg>