<svg xmlns="http://www.w3.org/2000/svg" width="47" height="48" viewBox="0 0 47 48" fill="none">
  <g clip-path="url(#clip0_192_2910)">
    <path d="M5.287 14.315L21.924 0.5L45.5 15.57V40.47H0L5.287 14.315Z" fill="#F59429"/>
    <path d="M46.3989 21.5H30.3989V30.5H46.3989V21.5Z" fill="#16181D"/>
    <path d="M46.3989 42.068V26.068H37.3989V42.068H46.3989Z" fill="#16181D"/>
    <path d="M32.1029 26.069C32.1029 20.904 27.9159 16.717 22.7509 16.717C17.586 16.717 13.3989 20.904 13.3989 26.069C13.3989 31.234 17.586 35.421 22.7509 35.421C27.9159 35.421 32.1029 31.234 32.1029 26.069Z" fill="#16181D"/>
    <path d="M28.252 26.068C28.252 23.0304 25.7895 20.568 22.752 20.568C19.7144 20.568 17.252 23.0304 17.252 26.068C17.252 29.1056 19.7144 31.568 22.752 31.568C25.7895 31.568 28.252 29.1056 28.252 26.068Z" stroke="#E1602D" stroke-width="3"/>
    <path d="M41.252 47.6592V26.0679H27.491" stroke="#E1602D" stroke-width="3"/>
  </g>
  <defs>
    <clipPath id="clip0_192_2910">
      <rect width="46.399" height="47.159" fill="white" transform="translate(0 0.5)"/>
    </clipPath>
  </defs>
</svg>