<svg xmlns="http://www.w3.org/2000/svg" width="59" height="47" viewBox="0 0 59 47" fill="none">
<path d="M21.6468 38.5627C19.6922 39.4849 17.511 40.0002 15.2107 40.0002C6.81007 40.0002 0 33.1284 0 24.6508C0 17.2533 5.18665 11.0781 12.0904 9.62555C15.5671 3.85434 21.857 0 29.0391 0C36.0955 0 42.2909 3.72098 45.8029 9.32482C46.0517 9.30986 46.3021 9.30224 46.5546 9.30224C53.4277 9.30224 58.9999 14.9249 58.9999 21.8604C58.9999 28.7958 53.4277 34.4185 46.5546 34.4185C45.4022 34.4185 44.2867 34.2605 43.2276 33.9647C39.6279 37.6882 34.6009 40.0002 29.0391 40.0002C26.4261 40.0002 23.9311 39.4898 21.6468 38.5627Z" fill="#F59429"/>
<path d="M23.4994 42.5002V35.0529C20.6075 33.4624 18.6475 30.3865 18.6475 26.8528C18.6475 21.6877 22.8343 17.5 27.9994 17.5C33.1645 17.5 37.3522 21.6877 37.3522 26.8528C37.3522 30.3868 35.3919 33.4627 32.4994 35.053V42.5002H23.4994Z" fill="#16181D"/>
<circle cx="28" cy="26.8525" r="5.5" stroke="#E1602D" stroke-width="3"/>
<path d="M6.40918 45.3524H28V31.5913" stroke="#E1602D" stroke-width="3"/>
</svg>