<svg xmlns="http://www.w3.org/2000/svg" width="30" height="42" viewBox="0 0 30 42" fill="none">
  <path d="M23.303 14.3781C23.303 9.88141 19.6577 6.2363 15.161 6.2363C10.6646 6.2363 7.01929 9.88141 7.01929 14.3781H0.783203C0.783203 6.43723 7.22049 0 15.161 0C23.1019 0 29.5391 6.43723 29.5391 14.3781H23.303Z" fill="white"/>
  <path d="M23.303 27.6179C23.303 32.1146 19.6577 35.7599 15.161 35.7599C10.6646 35.7599 7.01929 32.1146 7.01929 27.6179H0.783203C0.783203 35.5588 7.22049 41.996 15.161 41.996C23.1019 41.996 29.5391 35.5588 29.5391 27.6179H23.303Z" fill="white"/>
  <circle opacity="0.798167" cx="15.1613" cy="20.9982" r="5.1833" fill="white"/>
</svg>