<svg xmlns="http://www.w3.org/2000/svg" width="30" height="26" viewBox="0 0 30 26" fill="none">
  <rect x="25.4575" y="25.2906" width="25.2906" height="4.5425" transform="rotate(-90 25.4575 25.2906)" fill="white"/>
  <path d="M0 12.5982C0 18.6592 4.91324 23.5725 10.9743 23.5725C17.0351 23.5725 21.9485 18.6592 21.9485 12.5982C21.9485 6.53739 17.0351 1.62396 10.9743 1.62396C4.91324 1.62396 0 6.53739 0 12.5982ZM17.1885 12.5982C17.1885 16.0303 14.4064 18.8127 10.9743 18.8127C7.54214 18.8127 4.75982 16.0303 4.75982 12.5982C4.75982 9.1661 7.54214 6.38394 10.9743 6.38394C14.4064 6.38394 17.1885 9.1661 17.1885 12.5982Z" fill="#FDE1DD"/>
</svg>