<svg xmlns="http://www.w3.org/2000/svg" width="129" height="20" viewBox="0 0 129 20" fill="none">
  <g clip-path="url(#clip0_286_1906)">
    <path d="M20.7752 5.6836C21.0142 5.62888 21.257 5.59218 21.5015 5.57381C21.7619 5.53901 22.0243 5.52208 22.2869 5.52314C22.5383 5.52291 22.7894 5.53984 23.0385 5.57381C23.3003 5.57381 23.5453 5.65827 23.7902 5.70894C23.8572 5.82968 23.903 5.9611 23.9253 6.09741C23.9803 6.26572 24.0227 6.43791 24.052 6.61255C24.0873 6.79116 24.1127 6.97162 24.128 7.15306C24.128 7.32196 24.1871 7.47396 24.2124 7.5922C24.6024 7.04865 25.0755 6.56987 25.6143 6.17341C26.2134 5.72805 26.9457 5.49884 27.6918 5.52314H28.2914C28.4597 5.53085 28.6268 5.55632 28.7897 5.59915C28.8265 5.79739 28.8519 5.99759 28.8657 6.19875C28.8657 6.41832 28.8657 6.65479 28.8657 6.89126C28.8657 7.12772 28.8657 7.50774 28.815 7.85399C28.8008 8.18405 28.7556 8.51205 28.6799 8.83364C28.4651 8.79763 28.2475 8.78068 28.0296 8.78297H27.6158C27.2841 8.78659 26.9533 8.8205 26.6277 8.88431C26.2457 8.94198 25.8867 9.10257 25.589 9.34881C25.2136 9.6598 24.9231 10.0607 24.7445 10.5142C24.5105 11.2101 24.4046 11.9426 24.432 12.6762V19.027C24.1215 19.0774 23.8086 19.1112 23.4946 19.1283H22.5909H21.6789C21.3805 19.1283 21.068 19.0945 20.7415 19.027L20.7752 5.6836Z" fill="#010101"/>
    <path d="M34.9968 19.3394C34.0176 19.3612 33.044 19.186 32.1338 18.8243C31.3702 18.4817 30.6879 17.9808 30.1323 17.3548C29.5988 16.6949 29.1922 15.9419 28.9331 15.1338C28.6665 14.2465 28.5356 13.324 28.5446 12.3975C28.5363 11.46 28.6672 10.5265 28.9331 9.6275C29.1865 8.817 29.5937 8.0629 30.1323 7.40641C30.6812 6.7667 31.3646 6.25626 32.1338 5.91163C33.9744 5.19112 36.019 5.19112 37.8597 5.91163C38.6388 6.25155 39.3316 6.76242 39.8865 7.40641C40.4374 8.0546 40.846 8.81131 41.0857 9.6275C41.3517 10.5265 41.4826 11.46 41.4742 12.3975C41.4833 13.324 41.3523 14.2465 41.0857 15.1338C40.8403 15.9476 40.4324 16.7032 39.8865 17.3548C39.3257 17.9861 38.634 18.4876 37.8597 18.8243C36.9495 19.186 35.9759 19.3612 34.9968 19.3394ZM34.9968 16.5525C35.4068 16.5863 35.8182 16.5054 36.1851 16.319C36.5519 16.1326 36.8597 15.848 37.0743 15.4969C37.5633 14.5402 37.7878 13.4701 37.7245 12.3975C37.7916 11.3327 37.5668 10.2699 37.0743 9.32348C36.8664 8.96405 36.5609 8.67089 36.1932 8.47806C35.8255 8.28524 35.4106 8.20063 34.9968 8.23405C34.5834 8.20465 34.1701 8.29102 33.8031 8.48345C33.4362 8.67588 33.1301 8.96677 32.9192 9.32348C32.4445 10.2755 32.229 11.3357 32.2943 12.3975C32.2323 13.4672 32.4476 14.5348 32.9192 15.4969C33.1365 15.8454 33.4449 16.1279 33.8111 16.3139C34.1772 16.4999 34.5872 16.5825 34.9968 16.5525Z" fill="#010101"/>
    <path d="M51.8532 15.8854C52.0788 16.2638 52.2547 16.6697 52.3768 17.093C52.5251 17.6147 52.5963 18.1553 52.588 18.6976C51.9621 18.9511 51.3066 19.1242 50.6371 19.2128C50.0074 19.2987 49.3725 19.341 48.737 19.3394C47.7329 19.3636 46.734 19.1885 45.798 18.8243C45.005 18.4905 44.2934 17.9892 43.7121 17.3548C43.1615 16.712 42.7451 15.9654 42.4875 15.1591C42.2042 14.2576 42.0646 13.3171 42.0737 12.3722C42.0641 11.4429 42.195 10.5176 42.4622 9.6275C42.7252 8.8159 43.1408 8.06201 43.6867 7.40641C44.2545 6.7654 44.9547 6.25538 45.7389 5.91162C46.6364 5.53449 47.6032 5.35033 48.5765 5.37112C48.9594 5.37112 49.3056 5.37112 49.6153 5.37112C49.9332 5.39998 50.249 5.44793 50.5611 5.5147C50.8611 5.56503 51.1574 5.63557 51.4479 5.72583C51.7406 5.81028 52.07 5.92008 52.436 6.0552C52.43 6.50673 52.379 6.95654 52.2839 7.39798C52.1776 7.8844 52.0102 8.35543 51.7857 8.79989C51.3391 8.6422 50.878 8.52903 50.4091 8.46206C49.9709 8.39012 49.5273 8.35621 49.0832 8.36072C48.6204 8.32901 48.1568 8.40826 47.7308 8.59187C47.3048 8.77549 46.9288 9.05815 46.6341 9.41637C46.0432 10.2903 45.7608 11.3365 45.8318 12.3891C45.7278 13.4721 46.0286 14.5552 46.6763 15.4293C46.9836 15.7525 47.3569 16.0057 47.7708 16.1718C48.1846 16.338 48.6293 16.4131 49.0748 16.3921H49.7757C49.994 16.3775 50.2112 16.3493 50.426 16.3076C50.6379 16.2729 50.8468 16.2221 51.0509 16.1556L51.8532 15.8854Z" fill="#010101"/>
    <path d="M53.3818 0.152016C53.9817 0.0500553 54.5891 -0.000792141 55.1975 9.32792e-06C55.8172 -0.000421474 56.4358 0.0504169 57.047 0.152016V19.027C56.4358 19.1286 55.8172 19.1794 55.1975 19.179C54.5891 19.1798 53.9817 19.1289 53.3818 19.027V0.152016ZM57.0302 12.0344L60.366 5.68362C61.0332 5.57396 61.7082 5.51747 62.3844 5.51471C63.0297 5.51219 63.6739 5.56588 64.3099 5.67517L60.8727 11.8401L64.9179 19.027C64.2355 19.1259 63.5469 19.1766 62.8573 19.179C62.2126 19.1761 61.569 19.1253 60.9318 19.027L57.0302 12.0344Z" fill="#010101"/>
    <path d="M67.6036 13.4785C67.5993 13.9116 67.6954 14.3399 67.8845 14.7296C68.0735 15.1194 68.3502 15.4601 68.693 15.7249C69.4661 16.2232 70.3753 16.4682 71.2941 16.4259C72.5117 16.4273 73.7194 16.207 74.858 15.7756C75.0689 16.1699 75.236 16.5862 75.3562 17.017C75.4941 17.5243 75.5735 18.0456 75.5927 18.5709C74.1237 19.1041 72.5696 19.3646 71.007 19.3394C69.9092 19.3651 68.816 19.1906 67.7809 18.8243C66.9583 18.5189 66.214 18.0343 65.6021 17.4055C65.0357 16.7696 64.6098 16.0214 64.3522 15.2098C64.0844 14.314 63.9535 13.383 63.9637 12.4482C63.9558 11.5116 64.0954 10.5797 64.3775 9.68661C64.6327 8.86402 65.049 8.10039 65.6021 7.44019C66.1577 6.79483 66.85 6.28132 67.6289 5.93695C68.5215 5.54145 69.4905 5.34822 70.4665 5.37111C71.3225 5.35362 72.1721 5.5207 72.9578 5.86095C73.6641 6.16951 74.2952 6.62764 74.8073 7.20373C75.3417 7.7921 75.7422 8.48938 75.9812 9.24747C76.251 10.0644 76.3823 10.9208 76.3696 11.781C76.3698 12.1082 76.3529 12.4352 76.319 12.7606C76.3086 13.0125 76.2832 13.2635 76.243 13.5123L67.6036 13.4785ZM72.8818 10.9449C72.8826 10.2226 72.6351 9.52192 72.1809 8.96031C71.9682 8.70151 71.6976 8.49635 71.391 8.36138C71.0844 8.22642 70.7503 8.16544 70.4158 8.18337C70.0526 8.15881 69.6883 8.21076 69.3464 8.33587C69.0045 8.46098 68.6928 8.65645 68.4312 8.90964C67.9301 9.47461 67.6328 10.1912 67.5867 10.9449H72.8818Z" fill="#010101"/>
    <path d="M78.0756 8.47051H76.3866L76.2515 7.95537L81.1159 1.78192H81.7155V5.68361H84.8655C84.9122 5.91237 84.9461 6.14355 84.9669 6.3761C84.9669 6.58723 84.9669 6.79837 84.9669 7.02639C84.9669 7.25441 84.9669 7.4993 84.9669 7.71888C84.9464 7.97103 84.9126 8.22193 84.8655 8.47051H81.7155V13.715C81.7052 14.1492 81.7478 14.5831 81.8422 15.0071C81.9106 15.2865 82.0372 15.5484 82.2138 15.7756C82.3768 15.9627 82.5911 16.0977 82.8302 16.164C83.1061 16.2346 83.39 16.2687 83.6748 16.2654C83.9262 16.2662 84.1773 16.2493 84.4264 16.2147L85.1104 16.088C85.2307 16.4217 85.3156 16.767 85.3638 17.1184C85.4179 17.4251 85.4461 17.7359 85.4482 18.0473C85.4583 18.2105 85.4583 18.374 85.4482 18.5372C85.4613 18.6579 85.4613 18.7796 85.4482 18.9003C84.6407 19.0944 83.8128 19.1908 82.9823 19.1874C81.6863 19.276 80.4022 18.892 79.3677 18.1065C78.9138 17.6313 78.5673 17.0642 78.3516 16.4435C78.136 15.8228 78.0563 15.163 78.1178 14.5088L78.0756 8.47051Z" fill="#010101"/>
    <path d="M86.3181 0.101333C86.525 0.0651329 86.7336 0.0397659 86.943 0.0253296H87.5933H88.2183C88.4547 0.0253296 88.6743 0.0675524 88.8685 0.101333V15.0324C88.8563 15.4137 88.899 15.7949 88.9952 16.164C89.0623 16.4016 89.1772 16.6229 89.333 16.8143C89.4841 16.9458 89.6632 17.0411 89.8566 17.093C90.0717 17.1276 90.2891 17.1446 90.5069 17.1437H91.0221C91.1983 17.1316 91.3733 17.1062 91.5457 17.0677C91.7057 17.7113 91.7851 18.3722 91.7821 19.0354C91.4951 19.1274 91.1967 19.1785 90.8954 19.1874C90.552 19.2212 90.231 19.2381 89.9326 19.2381C89.4693 19.2282 89.0093 19.1572 88.5645 19.027C88.1431 18.9117 87.7515 18.7072 87.416 18.4274C87.0672 18.1306 86.7998 17.7499 86.639 17.3211C86.4313 16.7682 86.3338 16.1801 86.3519 15.5898L86.3181 0.101333Z" fill="#010101"/>
    <path d="M99.6023 12.8113C99.3489 12.8113 99.0196 12.7353 98.6142 12.7015C98.2088 12.6678 97.8795 12.6509 97.6008 12.6509C96.7345 12.5984 95.8725 12.8073 95.1263 13.2505C94.8458 13.4572 94.6216 13.7309 94.474 14.0466C94.3265 14.3623 94.2604 14.7099 94.2818 15.0577C94.2564 15.4798 94.3563 15.8999 94.5689 16.2654C94.7403 16.5474 94.9818 16.7802 95.2699 16.941C95.5711 17.0934 95.8972 17.1906 96.2326 17.2281C96.5761 17.2619 96.9054 17.2788 97.2207 17.2788C97.6177 17.2788 98.0653 17.2788 98.4453 17.2281C98.829 17.1792 99.2096 17.1087 99.5854 17.017L99.6023 12.8113ZM99.6023 10.2778C99.6455 9.88843 99.5978 9.49436 99.463 9.12656C99.3281 8.75876 99.1099 8.42724 98.8253 8.15803C98.1549 7.72076 97.3606 7.51327 96.562 7.56686C95.9955 7.5653 95.4301 7.61618 94.873 7.71886C94.353 7.80494 93.8395 7.92629 93.336 8.08202C92.9906 7.45738 92.8186 6.75176 92.8377 6.03828C93.476 5.84319 94.1282 5.6964 94.7885 5.59914C95.471 5.50027 96.1596 5.44948 96.8491 5.44714C98.2678 5.34772 99.6738 5.77129 100.801 6.63788C101.288 7.12355 101.662 7.71074 101.895 8.35746C102.129 9.00418 102.217 9.6945 102.153 10.3791V18.6723C101.545 18.8074 100.81 18.9425 99.9401 19.0861C99.0645 19.2392 98.1772 19.3155 97.2883 19.3141C96.511 19.3216 95.7352 19.2451 94.9743 19.0861C94.3508 18.9518 93.7597 18.6964 93.2346 18.3344C92.7662 17.992 92.3891 17.5395 92.1368 17.017C91.8614 16.4104 91.7285 15.7489 91.7483 15.0831C91.7316 14.4092 91.8825 13.7418 92.1874 13.1407C92.4921 12.5868 92.9197 12.1101 93.4373 11.7472C93.9785 11.3552 94.5888 11.0687 95.2361 10.9027C95.9297 10.7145 96.6456 10.6208 97.3643 10.624C97.9217 10.624 98.3693 10.624 98.724 10.6747C99.0787 10.7253 99.3911 10.6747 99.6276 10.7507L99.6023 10.2778Z" fill="#010101"/>
    <path d="M104.433 5.78495L104.982 5.70895C105.168 5.70895 105.362 5.70895 105.556 5.70895C105.728 5.69969 105.9 5.69969 106.071 5.70895L106.62 5.78495C106.671 6.0383 106.722 6.393 106.772 6.8406C106.821 7.20189 106.849 7.56558 106.857 7.93C107.043 7.62617 107.261 7.34306 107.507 7.08549C107.781 6.78657 108.093 6.52532 108.436 6.30855C108.804 6.05796 109.208 5.86698 109.635 5.74271C110.114 5.57959 110.616 5.49962 111.122 5.50624C111.748 5.45502 112.377 5.54702 112.963 5.77528C113.548 6.00355 114.074 6.36208 114.5 6.82369C115.307 7.93833 115.696 9.30186 115.598 10.6747V19.027C115.403 19.027 115.184 19.0861 114.947 19.103H114.297H113.647C113.449 19.0874 113.251 19.062 113.056 19.027V11.325C113.121 10.3936 112.922 9.46267 112.481 8.63942C112.278 8.35155 112.002 8.12209 111.682 7.97392C111.362 7.82575 111.009 7.76403 110.657 7.7949C110.186 7.7953 109.719 7.8841 109.281 8.0567C108.841 8.23135 108.447 8.50601 108.132 8.85898C107.775 9.27532 107.503 9.75724 107.33 10.2778C107.122 10.9472 107.025 11.6461 107.043 12.3468V19.027C106.827 19.0636 106.61 19.0889 106.392 19.103H105.767H105.117C104.899 19.0889 104.682 19.0636 104.467 19.027L104.433 5.78495Z" fill="#010101"/>
    <path d="M119.812 13.0394C119.776 13.617 119.857 14.1958 120.05 14.7414C120.243 15.287 120.544 15.7881 120.935 16.2147C121.83 16.9483 122.973 17.3109 124.127 17.2282C125.328 17.2329 126.52 17.0123 127.64 16.5779C127.797 16.8784 127.911 17.1997 127.978 17.5322C128.069 17.8889 128.122 18.2539 128.139 18.6216C127.527 18.8715 126.89 19.0528 126.238 19.1621C125.49 19.2859 124.733 19.3453 123.975 19.3394C122.912 19.3657 121.854 19.1997 120.85 18.8496C120.038 18.5387 119.303 18.0546 118.697 17.4308C118.136 16.8046 117.718 16.0641 117.472 15.2604C117.205 14.3647 117.074 13.4337 117.084 12.4989C117.075 11.5742 117.197 10.653 117.447 9.76262C117.682 8.9512 118.078 8.19566 118.612 7.54154C119.14 6.89831 119.807 6.38413 120.563 6.0383C121.448 5.64671 122.408 5.45359 123.375 5.47249C124.207 5.45508 125.033 5.61334 125.799 5.93696C126.468 6.23361 127.062 6.67492 127.539 7.22907C128.021 7.79515 128.383 8.45307 128.603 9.16302C128.853 9.94918 128.976 10.7703 128.966 11.5952C128.966 11.8317 128.966 12.0935 128.966 12.3722C128.966 12.6509 128.966 12.8536 128.915 13.0394H119.812ZM126.416 11.1307C126.418 10.667 126.35 10.2056 126.213 9.76262C126.101 9.33971 125.906 8.94344 125.639 8.59719C125.386 8.26383 125.055 7.99717 124.676 7.82024C124.249 7.60742 123.776 7.50299 123.299 7.5162C122.846 7.48726 122.392 7.55767 121.969 7.72251C121.546 7.88735 121.164 8.14264 120.85 8.47051C120.25 9.23348 119.896 10.1615 119.837 11.1307H126.416Z" fill="#010101"/>
    <path fill-rule="evenodd" clip-rule="evenodd" d="M13.8248 5.32045L17.0086 12.33L13.8248 19.3394C12.0807 19.9015 10.1897 19.7931 8.52124 19.0354L11.5699 12.33L8.52124 5.62449C10.1897 4.86684 12.0807 4.75842 13.8248 5.32045Z" fill="#4765AF"/>
    <path fill-rule="evenodd" clip-rule="evenodd" d="M5.39646 5.37956L8.52118 12.2708L5.39646 19.1621C4.56776 19.4745 3.68944 19.6347 2.80379 19.635C1.84132 19.6386 0.887913 19.4491 0 19.0776L3.09092 12.2708L0 5.46402C1.7228 4.75143 3.65222 4.72123 5.39646 5.37956Z" fill="#010101"/>
  </g>
  <defs>
    <clipPath id="clip0_286_1906">
      <rect width="129" height="19.6941" fill="white"/>
    </clipPath>
  </defs>
</svg>